<?xml version="1.0" encoding="utf-8" ?>
<svg baseProfile="tiny" height="100%" version="1.2" width="100%" xmlns="http://www.w3.org/2000/svg" xmlns:ev="http://www.w3.org/2001/xml-events" xmlns:xlink="http://www.w3.org/1999/xlink"><defs /><polygon fill="white" points="633,786 632,787 632,794 633,795 633,796 635,798 635,799 637,801 638,801 641,804 642,804 643,805 643,807 642,808 642,810 641,811 641,813 640,814 640,815 639,816 639,818 638,819 638,821 637,822 637,824 636,825 636,826 635,827 635,829 634,830 634,832 633,833 633,834 632,835 632,837 631,838 631,840 630,841 630,842 629,843 629,845 628,846 628,848 627,849 627,853 628,854 628,856 632,860 633,860 634,861 635,861 636,862 639,862 640,863 642,863 643,864 645,864 646,865 648,865 649,866 651,866 652,867 654,867 655,868 661,868 662,867 663,867 667,863 667,862 668,861 668,859 669,858 669,856 670,855 670,854 671,853 671,851 672,850 672,848 673,847 673,846 674,845 674,843 675,842 675,840 676,839 676,838 677,837 677,835 678,834 678,831 677,830 677,829 676,828 676,826 675,825 675,822 674,821 674,813 675,812 675,810 676,809 674,807 673,807 672,806 671,806 670,805 669,805 667,803 666,803 665,802 664,802 663,801 661,801 659,799 657,799 656,798 655,798 654,797 653,797 652,796 651,796 650,795 649,795 648,794 647,794 646,793 645,793 644,792 643,792 642,791 641,791 640,790 639,790 638,789 637,789 635,787 634,787" /><polygon fill="white" points="668,683 667,684 665,684 664,685 663,685 658,690 658,691 657,692 657,697 658,698 660,698 661,699 662,699 663,700 665,700 666,701 667,701 668,702 670,702 671,703 672,703 673,704 675,704 676,705 677,705 678,706 679,706 680,707 681,707 682,708 683,708 684,709 686,709 687,710 688,710 689,711 690,711 691,712 692,712 694,714 695,714 696,715 697,715 698,716 699,716 700,717 701,717 702,718 703,718 705,720 706,720 707,721 708,721 710,723 711,723 713,725 714,725 715,726 716,726 718,728 719,728 723,732 723,733 724,734 724,737 723,738 723,739 721,741 720,741 719,742 715,742 714,741 713,741 711,739 710,739 708,737 707,737 706,736 705,736 703,734 702,734 701,733 700,733 698,731 697,731 696,730 695,730 694,729 693,729 692,728 691,728 689,726 688,726 687,725 686,725 685,724 684,724 683,723 682,723 681,722 680,722 679,721 677,721 676,720 675,720 674,719 673,719 672,718 671,718 670,717 669,717 668,716 666,716 665,715 664,715 663,714 661,714 660,713 659,713 658,712 656,712 655,711 654,711 653,710 647,710 646,711 645,711 641,715 641,716 640,717 640,719 639,720 639,726 640,727 640,729 641,730 641,731 643,733 645,733 646,734 648,734 649,735 650,735 651,736 653,736 654,737 655,737 656,738 658,738 659,739 660,739 661,740 663,740 664,741 665,741 666,742 667,742 668,743 670,743 671,744 672,744 673,745 674,745 675,746 676,746 677,747 678,747 679,748 680,748 681,749 682,749 683,750 684,750 685,751 686,751 687,752 688,752 689,753 690,753 691,754 692,754 694,756 695,756 696,757 697,757 698,758 699,758 701,760 702,760 704,762 705,762 706,763 707,763 709,765 709,766 710,767 710,772 706,776 701,776 699,774 698,774 696,772 695,772 694,771 693,771 691,769 690,769 689,768 688,768 687,767 686,767 685,766 684,766 683,765 682,765 680,763 678,763 677,762 676,762 675,761 674,761 673,760 672,760 671,759 670,759 669,758 668,758 667,757 666,757 665,756 663,756 662,755 661,755 660,754 659,754 658,753 656,753 655,752 654,752 653,751 651,751 650,750 649,750 648,749 646,749 645,748 643,748 642,747 640,747 639,746 638,746 637,747 636,747 632,751 632,752 631,753 631,755 630,756 630,763 631,764 631,765 632,766 632,767 637,772 638,772 640,774 641,774 642,775 643,775 645,777 646,777 647,778 648,778 649,779 650,779 651,780 652,780 653,781 654,781 655,782 656,782 657,783 658,783 659,784 660,784 661,785 662,785 663,786 665,786 666,787 667,787 668,788 669,788 670,789 671,789 673,791 674,791 675,792 676,792 677,793 678,793 680,795 681,795 682,796 683,796 685,798 686,798 690,802 690,803 691,804 691,810 690,811 690,813 689,814 689,821 690,822 690,823 691,824 691,825 694,828 695,828 696,829 697,829 698,830 699,830 700,831 712,831 713,830 715,830 716,829 718,829 719,828 720,828 721,827 722,827 725,824 726,824 733,817 733,816 736,813 736,812 738,810 738,809 740,807 740,806 741,805 741,804 742,803 742,802 744,800 744,799 745,798 745,797 746,796 746,795 747,794 747,792 748,791 748,790 749,789 749,788 750,787 750,785 751,784 751,782 752,781 752,779 753,778 753,776 754,775 754,772 755,771 755,768 756,767 756,764 757,763 757,757 758,756 758,736 757,735 757,732 756,731 756,729 755,728 755,727 754,726 754,725 753,724 753,723 749,719 749,718 746,715 745,715 739,709 738,709 735,706 734,706 732,704 731,704 730,703 729,703 727,701 726,701 725,700 724,700 723,699 722,699 721,698 720,698 719,697 718,697 717,696 716,696 715,695 714,695 713,694 712,694 711,693 710,693 709,692 707,692 706,691 705,691 704,690 702,690 701,689 700,689 699,688 697,688 696,687 694,687 693,686 691,686 690,685 687,685 686,684 683,684 682,683" /><polygon fill="white" points="800,592 799,593 798,593 797,594 796,594 793,597 792,597 789,600 788,600 786,602 785,602 785,603 784,604 784,605 783,606 783,608 782,609 782,610 781,611 781,613 780,614 780,616 779,617 779,618 778,619 778,621 777,622 777,624 776,625 776,626 775,627 775,629 774,630 774,631 773,632 773,634 772,635 772,636 771,637 771,639 770,640 770,641 769,642 769,644 768,645 768,647 767,648 767,649 766,650 766,652 765,653 765,654 764,655 764,657 763,658 763,660 762,661 762,662 761,663 761,665 760,666 760,667 759,668 759,670 758,671 758,672 757,673 757,675 756,676 756,678 755,679 755,680 754,681 754,683 753,684 753,685 752,686 752,688 751,689 751,690 750,691 750,693 749,694 749,696 748,697 748,698 749,699 750,699 755,704 756,703 756,702 758,700 758,699 759,698 759,697 761,695 761,694 763,692 763,691 764,690 764,689 766,687 766,686 767,685 767,684 768,683 768,682 770,680 770,679 771,678 771,677 772,676 772,675 773,674 773,673 774,672 774,671 775,670 775,669 776,668 776,667 777,666 777,665 778,664 778,663 779,662 779,661 780,660 780,659 781,658 781,656 782,655 782,654 783,653 783,652 784,651 784,649 785,648 785,647 786,646 786,644 787,643 787,642 788,641 788,639 789,638 789,636 790,635 790,633 791,632 791,630 792,629 792,627 793,626 793,624 794,623 794,621 795,620 795,617 796,616 796,613 797,612 797,610 798,609 798,605 799,604 799,601 800,600 800,596 801,595 801,592" /><polygon fill="white" points="737,588 737,589 736,590 736,592 735,593 735,595 734,596 734,598 733,599 733,600 732,601 732,603 731,604 731,606 730,607 730,608 729,609 729,611 728,612 728,613 727,614 727,616 726,617 726,618 725,619 725,621 724,622 724,623 723,624 723,626 722,627 722,628 721,629 721,631 720,632 720,633 719,634 719,636 718,637 718,638 717,639 717,641 716,642 716,643 715,644 715,646 714,647 714,648 713,649 713,651 712,652 712,653 711,654 711,656 710,657 710,658 709,659 709,661 708,662 708,663 707,664 707,665 706,666 706,668 705,669 705,671 704,672 704,673 703,674 704,674 705,675 707,675 708,676 709,676 710,677 712,677 713,678 714,678 715,679 716,679 717,680 718,680 719,681 721,681 722,682 723,682 724,683 725,683 726,684 727,684 729,686 730,686 731,687 732,687 733,688 734,688 736,690 737,689 737,687 738,686 738,685 739,684 739,682 740,681 740,679 741,678 741,676 742,675 742,674 743,673 743,671 744,670 744,668 745,667 745,665 746,664 746,663 747,662 747,660 748,659 748,657 749,656 749,654 750,653 750,651 751,650 751,649 752,648 752,646 753,645 753,643 754,642 754,640 755,639 755,638 756,637 756,635 757,634 757,632 758,631 758,629 759,628 759,626 760,625 760,624 761,623 761,621 762,620 762,618 763,617 763,615 764,614 764,613 765,612 765,610 766,609 766,607 767,606 767,604 768,603 768,602 769,601 769,600 768,600 767,599 765,599 764,598 763,598 762,597 760,597 759,596 757,596 756,595 755,595 754,594 752,594 751,593 750,593 749,592 747,592 746,591 745,591 744,590 742,590 741,589 740,589 739,588" /><polygon fill="white" points="448,538 448,539 449,540 448,541 448,575 449,576 449,582 450,583 450,587 451,588 451,590 452,591 452,593 453,594 453,595 454,596 454,598 455,599 455,600 456,601 456,602 458,604 458,605 459,606 459,607 461,609 461,610 464,613 464,614 477,627 478,627 481,630 482,630 484,632 485,632 486,633 487,633 489,635 490,635 491,636 492,636 493,637 494,637 495,638 496,638 497,639 498,639 499,640 500,640 501,641 503,641 504,642 506,642 507,643 509,643 510,644 513,644 514,645 517,645 518,646 524,646 525,647 542,647 543,646 548,646 549,645 552,645 553,644 555,644 556,643 558,643 559,642 560,642 561,641 562,641 563,640 564,640 565,639 566,639 568,637 569,637 571,635 572,635 577,630 577,629 580,626 580,625 582,623 582,622 583,621 583,620 584,619 584,618 585,617 585,615 586,614 586,612 587,611 587,608 588,607 588,602 589,601 585,601 584,602 580,602 579,603 573,603 572,604 547,604 546,603 539,603 538,602 534,602 533,601 530,601 529,600 526,600 525,599 523,599 522,598 520,598 519,597 517,597 516,596 515,596 514,595 512,595 511,594 510,594 509,593 508,593 507,592 505,592 504,591 503,591 501,589 500,589 499,588 498,588 497,587 496,587 494,585 493,585 492,584 491,584 489,582 488,582 485,579 484,579 481,576 480,576 473,569 472,569 467,564 467,563 460,556 460,555 456,551 456,550 454,548 454,547 452,545 452,544 450,542 450,541 449,540 449,539" /><polygon fill="white" points="697,495 696,496 695,496 694,497 693,497 692,498 692,499 691,500 691,501 690,502 690,504 689,505 689,507 688,508 688,510 687,511 687,512 686,513 686,515 685,516 685,518 684,519 684,521 683,522 683,523 682,524 682,526 681,527 681,529 680,530 680,531 679,532 679,540 680,541 680,542 682,544 683,544 684,545 686,545 687,546 690,546 691,547 693,547 694,548 696,548 697,549 704,549 706,547 707,547 708,546 709,546 710,545 721,545 722,546 725,546 726,547 727,547 728,548 729,548 735,554 735,555 736,556 736,557 737,558 737,561 738,562 738,565 737,566 737,569 738,570 738,572 741,575 742,575 743,576 744,576 745,577 747,577 748,578 749,578 750,579 752,579 753,580 754,580 755,581 757,581 758,582 760,582 761,583 762,583 763,584 765,584 766,585 768,585 769,586 771,586 772,587 773,587 774,588 781,588 784,585 784,584 792,576 793,576 794,575 803,575 804,576 805,576 806,577 807,577 808,578 809,578 822,591 822,592 826,596 826,597 829,600 829,601 831,603 831,604 833,606 833,607 834,608 834,609 836,611 836,612 837,613 837,614 838,615 838,616 839,617 839,618 840,619 840,620 842,622 848,622 849,621 849,620 850,619 850,609 849,608 849,601 848,600 848,596 847,595 847,591 846,590 846,587 845,586 845,583 844,582 844,580 843,579 843,577 842,576 842,574 841,573 841,572 840,571 840,569 839,568 839,567 838,566 838,565 837,564 837,563 836,562 836,561 835,560 835,559 833,557 833,556 832,555 832,554 829,551 829,550 826,547 826,546 817,537 816,537 813,534 812,534 810,532 809,532 807,530 806,530 804,528 803,528 802,527 801,527 800,526 799,526 798,525 797,525 796,524 795,524 794,523 793,523 792,522 791,522 790,521 788,521 787,520 786,520 785,519 783,519 782,518 780,518 779,517 778,517 777,516 775,516 774,515 771,515 770,514 768,514 767,513 764,513 763,512 760,512 759,511 754,511 753,512 751,512 750,513 749,513 748,514 747,514 745,516 744,516 743,517 733,517 732,516 731,516 730,515 729,515 728,514 727,514 722,509 722,508 721,507 721,505 720,504 720,503 717,500 716,500 715,499 712,499 711,498 709,498 708,497 706,497 705,496 703,496 702,495" /><polygon fill="white" points="635,317 632,320 631,320 628,323 627,323 626,324 625,324 623,326 622,326 621,327 620,327 618,329 617,329 616,330 615,330 614,331 613,331 612,332 611,332 610,333 609,333 608,334 606,334 605,335 604,335 603,336 601,336 600,337 598,337 597,338 596,338 595,339 593,339 592,340 589,340 588,341 586,341 585,342 582,342 581,343 577,343 576,344 573,344 572,345 567,345 566,346 560,346 559,347 553,347 552,348 542,348 541,349 529,349 528,350 490,350 489,349 476,349 476,356 475,357 475,365 474,366 474,371 473,372 473,376 472,377 472,381 471,382 471,386 470,387 470,389 469,390 469,393 468,394 468,397 467,398 467,400 466,401 466,403 465,404 465,406 464,407 464,409 463,410 463,412 462,413 462,414 461,415 461,417 460,418 460,419 459,420 459,422 458,423 458,424 457,425 457,426 456,427 456,428 455,429 455,430 454,431 454,432 453,433 453,434 451,436 451,437 446,442 444,442 443,443 440,443 439,442 437,442 429,434 429,433 427,431 427,430 422,425 421,425 419,423 418,423 417,422 416,422 415,421 405,421 404,422 402,422 400,424 399,424 394,429 394,430 393,431 393,432 392,433 392,434 391,435 391,436 390,437 390,442 389,443 389,452 390,453 390,457 391,458 391,461 392,462 392,464 393,465 393,467 394,468 394,469 395,470 395,471 396,472 396,473 397,474 397,475 398,476 398,477 399,478 399,479 401,481 401,482 404,485 404,486 410,492 411,492 414,495 415,495 416,496 417,496 418,497 419,497 420,498 422,498 423,499 427,499 428,500 433,500 434,499 437,499 438,498 440,498 442,496 445,496 448,499 448,500 449,501 449,503 450,504 450,506 451,507 451,509 452,510 452,512 453,513 453,515 454,516 454,517 455,518 455,519 456,520 456,522 457,523 457,524 458,525 458,526 459,527 459,528 460,529 460,530 462,532 462,533 463,534 463,535 465,537 465,538 467,540 467,541 470,544 470,545 474,549 474,550 487,563 488,563 492,567 493,567 495,569 496,569 498,571 499,571 501,573 502,573 504,575 505,575 506,576 507,576 508,577 509,577 510,578 511,578 512,579 513,579 514,580 515,580 516,581 518,581 519,582 520,582 521,583 523,583 524,584 526,584 527,585 529,585 530,586 533,586 534,587 537,587 538,588 543,588 544,589 551,589 552,590 567,590 568,589 575,589 576,588 581,588 582,587 585,587 586,586 588,586 589,585 592,585 593,584 594,584 595,583 597,583 598,582 599,582 600,581 602,581 603,580 604,580 605,579 606,579 608,577 609,577 610,576 611,576 612,575 613,575 615,573 616,573 619,570 620,570 626,564 627,564 628,563 628,562 635,555 635,554 638,551 638,550 640,548 640,547 642,545 642,544 643,543 643,542 644,541 644,540 645,539 645,538 646,537 646,536 647,535 647,534 648,533 648,532 649,531 649,530 650,529 650,527 651,526 651,525 652,524 652,522 653,521 653,519 654,518 654,516 655,515 655,512 656,511 656,508 657,507 657,504 658,503 658,499 659,498 659,493 660,492 660,486 661,485 661,477 662,476 662,456 663,455 663,445 662,444 662,422 661,421 661,411 660,410 660,401 659,400 659,394 658,393 658,387 657,386 657,380 656,379 656,374 655,373 655,369 654,368 654,364 653,363 653,360 652,359 652,356 651,355 651,352 650,351 650,348 649,347 649,345 648,344 648,342 647,341 647,340 646,339 646,337 645,336 645,335 644,334 644,333 643,332 643,331 642,330 642,329 641,328 641,327 640,326 640,325 638,323 638,322 637,321 637,320 635,318" /><polygon fill="white" points="529,229 528,230 518,230 517,231 510,231 509,232 503,232 502,233 497,233 496,234 494,234 495,235 495,239 494,240 494,243 493,244 495,244 496,245 497,245 504,252 504,253 505,254 505,256 506,257 506,266 505,267 505,269 504,270 504,271 503,272 503,273 499,277 498,277 501,280 501,281 502,282 502,283 503,284 503,285 504,286 504,296 503,297 503,299 502,300 502,301 500,303 500,304 497,307 496,307 494,309 493,309 492,310 491,310 490,311 489,311 488,312 486,312 485,313 482,313 481,314 476,314 475,315 471,315 470,316 467,316 466,317 463,317 462,318 461,318 460,319 458,319 457,320 455,320 454,321 453,321 452,322 451,322 450,323 449,323 448,324 447,324 446,325 445,325 443,327 442,327 436,333 436,334 435,335 435,336 434,337 434,349 433,350 433,360 432,361 432,367 431,368 431,372 430,373 430,377 429,378 429,380 428,381 428,383 427,384 427,386 426,387 426,389 425,390 425,391 424,392 424,393 423,394 423,395 421,397 421,398 413,406 416,406 417,407 419,407 420,408 422,408 423,409 424,409 425,410 426,410 428,412 429,412 439,422 439,423 441,425 441,426 441,425 442,424 442,423 443,422 443,421 444,420 444,419 445,418 445,417 446,416 446,415 447,414 447,412 448,411 448,410 449,409 449,407 450,406 450,404 451,403 451,402 452,401 452,398 453,397 453,395 454,394 454,392 455,391 455,388 456,387 456,384 457,383 457,380 458,379 458,375 459,374 459,370 460,369 460,364 461,363 461,356 462,355 462,340 463,339 463,338 466,335 467,335 468,334 469,334 470,335 480,335 481,336 532,336 533,335 544,335 545,334 553,334 554,333 561,333 562,332 567,332 568,331 572,331 573,330 577,330 578,329 581,329 582,328 584,328 585,327 588,327 589,326 591,326 592,325 594,325 595,324 596,324 597,323 599,323 600,322 601,322 602,321 603,321 604,320 606,320 607,319 608,319 609,318 610,318 612,316 613,316 614,315 615,315 616,314 617,314 619,312 620,312 623,309 624,309 627,306 628,306 633,301 634,301 635,300 639,300 640,301 641,301 643,303 643,304 644,305 644,306 646,308 646,309 647,310 647,311 648,312 648,313 650,315 650,316 651,317 651,318 652,319 652,320 653,321 653,322 655,324 655,325 656,326 656,327 657,328 657,330 658,331 658,332 659,333 659,334 660,335 660,337 661,338 661,339 662,340 662,342 663,343 663,346 664,347 664,350 665,351 665,353 666,354 666,357 667,358 667,362 668,363 668,367 669,368 669,373 670,374 670,376 670,375 671,374 671,373 672,372 672,371 673,370 673,369 674,368 674,366 675,365 675,363 676,362 676,359 677,358 677,354 678,353 678,329 677,328 677,323 676,322 676,319 675,318 675,315 674,314 674,313 673,312 673,310 672,309 672,308 671,307 671,306 670,305 670,304 669,303 669,302 667,300 667,299 664,296 664,295 661,292 660,292 657,289 656,289 654,287 653,287 652,286 651,286 650,285 649,285 648,284 647,284 646,283 646,282 645,281 645,275 644,274 644,271 643,270 643,268 642,267 642,266 641,265 641,264 640,263 640,262 638,260 638,259 630,251 629,251 626,248 625,248 624,247 623,247 621,245 620,245 619,244 618,244 617,243 616,243 615,242 614,242 613,241 612,241 611,240 609,240 608,239 607,239 606,238 604,238 603,237 601,237 600,236 597,236 596,235 594,235 593,234 590,234 589,233 585,233 584,232 580,232 579,231 572,231 571,230 562,230 561,229" /><polygon fill="white" points="215,176 215,565 216,566 216,576 217,577 217,583 218,584 218,590 219,591 219,595 220,596 220,600 221,601 221,605 222,606 222,609 223,610 223,613 224,614 224,617 225,618 225,621 226,622 226,624 227,625 227,628 228,629 228,631 229,632 229,634 230,635 230,637 231,638 231,639 232,640 232,642 233,643 233,645 234,646 234,647 235,648 235,650 236,651 236,652 237,653 237,654 238,655 238,657 239,658 239,659 240,660 240,661 241,662 241,663 242,664 242,665 243,666 243,667 244,668 244,669 245,670 245,671 246,672 246,673 247,674 247,675 248,676 248,677 249,678 249,679 250,680 250,681 252,683 252,684 253,685 253,686 255,688 255,689 256,690 256,691 258,693 258,694 260,696 260,697 262,699 262,700 265,703 265,704 267,706 267,707 270,710 270,711 274,715 274,716 279,721 279,722 286,729 286,730 304,748 305,748 312,755 313,755 318,760 319,760 323,764 324,764 327,767 328,767 331,770 332,770 334,772 335,772 337,774 338,774 340,776 341,776 343,778 344,778 346,780 347,780 349,782 350,782 352,784 353,784 355,786 356,786 357,787 358,787 359,788 360,788 362,790 363,790 364,791 365,791 366,792 367,792 369,794 370,794 371,795 372,795 373,796 374,796 375,797 376,797 377,798 378,798 380,800 381,800 382,801 383,801 384,802 385,802 386,803 387,803 388,804 389,804 390,805 391,805 392,806 393,806 394,807 395,807 396,808 397,808 398,809 399,809 400,810 401,810 402,811 403,811 404,812 405,812 406,813 407,813 408,814 410,814 411,815 412,815 413,816 414,816 415,817 416,817 417,818 418,818 419,819 421,819 422,820 423,820 424,821 425,821 426,822 427,822 428,823 430,823 431,824 432,824 433,825 434,825 435,826 437,826 438,827 439,827 440,828 441,828 442,829 444,829 445,830 446,830 447,831 449,831 450,832 451,832 452,833 454,833 455,834 456,834 457,835 459,835 460,836 461,836 462,837 464,837 465,838 466,838 467,839 469,839 470,840 472,840 473,841 474,841 475,842 477,842 478,843 480,843 481,844 483,844 484,845 485,845 486,846 488,846 489,847 491,847 492,848 494,848 495,849 496,849 497,850 499,850 500,851 502,851 503,852 505,852 506,853 514,853 515,852 518,852 519,851 521,851 522,850 524,850 525,849 527,849 528,848 530,848 531,847 533,847 534,846 536,846 537,845 538,845 539,844 541,844 542,843 544,843 545,842 547,842 548,841 549,841 550,840 552,840 553,839 555,839 556,838 557,838 558,837 560,837 561,836 563,836 564,835 565,835 566,834 568,834 569,833 570,833 571,832 573,832 574,831 575,831 576,830 577,830 578,829 580,829 581,828 582,828 583,827 584,827 585,826 587,826 588,825 589,825 590,824 591,824 592,823 593,823 594,822 596,822 597,821 598,821 599,820 600,820 601,819 602,819 603,818 604,818 605,817 606,817 607,816 608,816 609,815 610,815 611,814 612,814 613,813 614,813 615,812 616,812 617,811 618,811 619,810 620,810 621,809 622,809 623,808 624,808 622,806 622,805 621,804 621,803 620,802 620,801 619,800 619,799 618,798 618,795 617,794 617,786 618,785 618,783 619,782 619,780 621,778 621,776 620,775 620,774 619,773 619,772 618,771 618,770 617,769 617,767 616,766 616,753 617,752 617,749 618,748 618,747 619,746 619,745 620,744 620,743 627,736 628,736 627,735 627,734 626,733 626,730 625,729 625,717 626,716 626,714 627,713 627,711 628,710 628,709 630,707 630,706 636,700 637,700 639,698 641,698 642,697 643,697 643,689 644,688 644,686 645,685 645,684 646,683 646,682 655,673 656,673 657,672 658,672 659,671 660,671 661,670 663,670 664,669 667,669 668,668 683,668 684,669 688,669 689,670 690,669 690,667 691,666 691,664 692,663 692,662 693,661 693,659 694,658 694,657 695,656 695,655 696,654 696,652 697,651 697,650 698,649 698,647 699,646 699,645 700,644 700,643 696,639 695,639 692,636 691,636 688,633 687,633 685,631 684,631 682,629 681,629 679,627 678,627 676,625 675,625 674,624 673,624 671,622 670,622 669,621 668,621 666,619 665,619 664,618 663,618 662,617 661,617 660,616 659,616 658,615 657,615 656,614 655,614 654,613 653,613 652,612 651,612 650,611 649,611 648,610 647,610 646,609 645,609 644,608 643,608 642,607 640,607 639,606 638,606 637,605 635,605 634,604 633,604 632,603 630,603 629,602 627,602 626,601 624,601 623,600 621,600 620,599 618,599 617,598 615,598 614,597 611,597 610,596 607,596 606,595 604,595 604,602 603,603 603,607 602,608 602,612 601,613 601,616 600,617 600,619 599,620 599,621 598,622 598,624 597,625 597,626 595,628 595,629 594,630 594,631 593,632 593,633 590,636 590,637 580,647 579,647 576,650 575,650 574,651 573,651 571,653 570,653 569,654 568,654 567,655 565,655 564,656 563,656 562,657 560,657 559,658 557,658 556,659 553,659 552,660 548,660 547,661 537,661 536,662 535,661 534,662 529,662 528,661 520,661 519,660 514,660 513,659 510,659 509,658 506,658 505,657 503,657 502,656 500,656 499,655 497,655 496,654 495,654 494,653 493,653 492,652 490,652 489,651 488,651 487,650 486,650 485,649 484,649 482,647 481,647 480,646 479,646 477,644 476,644 474,642 473,642 470,639 469,639 463,633 462,633 456,627 456,626 452,622 452,621 449,618 449,617 447,615 447,614 445,612 445,611 444,610 444,609 443,608 443,607 442,606 442,605 441,604 441,603 440,602 440,601 439,600 439,598 438,597 438,595 437,594 437,592 436,591 436,588 435,587 435,583 434,582 434,573 433,572 433,567 425,567 424,566 413,566 412,565 402,565 401,564 389,564 388,563 377,563 376,562 364,562 363,561 351,561 350,560 338,560 337,559 324,559 323,558 308,558 308,559 306,561 306,562 304,564 304,565 303,566 303,567 301,569 301,570 299,572 299,573 297,575 297,576 296,577 296,578 294,580 294,581 293,582 293,583 292,584 292,585 290,587 290,588 289,589 289,590 286,593 284,593 283,594 281,594 280,593 279,593 275,589 275,583 276,582 276,581 278,579 278,578 279,577 279,576 281,574 281,573 282,572 282,571 284,569 284,568 285,567 285,566 287,564 287,563 289,561 289,560 290,559 290,558 292,556 292,555 294,553 294,552 295,551 295,550 297,548 297,547 299,545 299,544 300,543 300,542 302,540 302,539 303,538 303,537 305,535 305,534 307,532 307,531 308,530 308,529 310,527 310,526 312,524 312,523 313,522 313,521 315,519 315,518 316,517 316,516 318,514 318,513 320,511 320,510 321,509 321,508 323,506 323,505 324,504 324,503 326,501 326,500 327,499 327,498 329,496 329,495 331,493 331,492 332,491 332,490 334,488 334,487 335,486 335,485 337,483 337,482 339,480 339,479 340,478 340,477 342,475 342,474 343,473 343,472 345,470 345,469 346,468 346,467 348,465 348,464 349,463 349,462 351,460 351,459 353,457 353,456 354,455 354,454 356,452 356,451 357,450 357,449 359,447 359,446 361,444 361,443 362,442 362,441 364,439 364,438 365,437 365,436 367,434 367,433 368,432 368,431 370,429 370,428 371,427 371,426 373,424 373,423 374,422 374,421 376,419 376,418 378,416 378,415 379,414 379,413 381,411 381,410 385,406 387,406 388,405 390,405 391,404 392,404 393,403 394,403 395,402 396,402 397,401 398,401 400,399 401,399 404,396 405,396 406,395 406,394 410,390 410,389 411,388 411,387 412,386 412,385 413,384 413,383 414,382 414,380 415,379 415,377 416,376 416,373 417,372 417,369 418,368 418,363 419,362 419,354 420,353 420,339 421,338 421,334 422,333 422,331 423,330 423,329 424,328 424,327 426,325 426,324 431,319 432,319 435,316 436,316 438,314 439,314 440,313 441,313 442,312 443,312 444,311 445,311 446,310 447,310 448,309 449,309 450,308 451,308 452,307 454,307 455,306 457,306 458,305 460,305 461,304 464,304 465,303 468,303 469,302 473,302 474,301 479,301 480,300 484,300 485,299 486,299 487,298 488,298 490,296 490,295 491,294 491,288 490,287 490,286 488,284 487,284 486,283 484,283 483,282 470,282 469,283 463,283 462,284 458,284 457,285 453,285 452,286 450,286 449,287 447,287 446,288 444,288 443,289 442,289 441,290 439,290 438,291 437,291 436,292 435,292 434,293 433,293 432,294 431,294 430,295 429,295 428,296 427,296 426,297 425,297 423,299 422,299 420,301 419,301 416,304 415,304 414,305 410,305 407,302 407,298 408,297 408,296 415,289 416,289 418,287 419,287 421,285 422,285 423,284 424,284 425,283 426,283 427,282 428,282 429,281 430,281 431,280 432,280 433,279 434,279 435,278 437,278 438,277 439,277 440,276 442,276 443,275 445,275 446,274 448,274 449,273 452,273 453,272 457,272 458,271 461,271 462,270 468,270 469,269 490,269 492,267 492,266 493,265 493,258 489,254 487,254 486,253 468,253 467,254 459,254 458,255 454,255 453,256 450,256 449,257 446,257 445,258 442,258 441,259 439,259 438,260 436,260 435,261 434,261 433,262 431,262 430,263 429,263 428,264 426,264 425,265 424,265 423,266 422,266 421,267 420,267 418,269 417,269 416,270 415,270 413,272 412,272 410,274 409,274 406,277 405,277 404,278 401,278 398,275 398,272 400,270 400,269 408,261 409,261 411,259 412,259 414,257 415,257 416,256 417,256 418,255 419,255 421,253 422,253 423,252 425,252 426,251 427,251 428,250 429,250 430,249 432,249 433,248 435,248 436,247 438,247 439,246 441,246 442,245 445,245 446,244 449,244 450,243 454,243 455,242 461,242 462,241 473,241 474,240 480,240 482,238 482,233 481,232 481,231 479,229 476,229 475,228 449,228 448,229 444,229 443,230 439,230 438,231 435,231 434,232 432,232 431,233 428,233 427,234 426,234 425,235 423,235 422,236 420,236 419,237 418,237 417,238 415,238 414,239 413,239 412,240 411,240 410,241 409,241 408,242 407,242 406,243 405,243 403,245 402,245 401,246 400,246 398,248 397,248 395,250 394,250 392,252 391,252 386,257 385,257 375,267 375,268 371,272 371,273 368,276 368,277 366,279 366,280 365,281 365,282 363,284 363,285 362,286 362,287 361,288 361,289 359,291 359,292 358,293 358,295 357,296 357,297 356,298 356,299 355,300 355,302 354,303 354,304 353,305 353,307 352,308 352,310 351,311 351,312 350,313 350,315 349,316 349,318 348,319 348,322 347,323 347,325 346,326 346,328 345,329 345,332 344,333 344,336 343,337 343,340 342,341 342,344 341,345 341,348 340,349 340,353 339,354 339,357 338,358 338,359 337,360 337,361 336,362 336,363 334,365 334,366 324,376 324,377 310,391 310,392 298,404 298,405 286,417 286,418 274,430 274,431 265,440 265,441 256,450 256,451 249,458 249,459 241,467 241,468 238,471 237,470 237,200 238,199 784,199 785,200 785,214 786,215 786,503 788,503 789,504 791,504 792,505 793,505 794,506 796,506 797,507 798,507 799,508 800,508 801,509 803,509 804,510 805,510 806,511 807,511 808,512 808,176" /></svg>